<mxfile host="app.diagrams.net" modified="2024-07-17T16:57:09.193Z" agent="Mozilla/5.0 (Windows NT 10.0; Win64; x64) AppleWebKit/537.36 (KHTML, like Gecko) Chrome/126.0.0.0 Safari/537.36" version="24.7.0" etag="hy6FHhZIMPXnAKV20eyx" type="github">
  <diagram name="Trang-1" id="4PhxU2EOv-PcNl2haS3I">
    <mxGraphModel>
      <root>
        <mxCell id="0" />
        <mxCell id="1" parent="0" />
      </root>
    </mxGraphModel>
  </diagram>
</mxfile>
